# xmcd
#
# Track frame offsets: 
#        150
#        16877
#        30795
#        50582
#        67682
#        87450
#        104722
#        116747
#        130892
#        146205
#        160507
#        180325
#
# Disc length: 2647 seconds
#
# Revision: 0
# Processed by: cddbd v1.5.2PL0 Copyright (c) Steve Scherf et al.
# Submitted via: ExactAudioCopy v0.95b3
#
DISCID=970a550c
DTITLE=Jelly Roll Morton  - Piano Rolls 1924-1926 Complete Edition
DYEAR=1900
DGENRE=
TTITLE0=Grandpa's Spells
TTITLE1=Tom Cat Blues
TTITLE2=Shreveport Stomp
TTITLE3=The 'Jelly Roll' Blues
TTITLE4=Stratford Hunch
TTITLE5=Mr. Jelly Lord
TTITLE6=King Portor
TTITLE7=Tin Roof Blues
TTITLE8=London Blues
TTITLE9=Sweet Man
TTITLE10=Dead Man Blues
TTITLE11=Midnight Mama
EXTD=
EXTT0=
EXTT1=
EXTT2=
EXTT3=
EXTT4=
EXTT5=
EXTT6=
EXTT7=
EXTT8=
EXTT9=
EXTT10=
EXTT11=
PLAYORDER=
